<?xml version="1.0" encoding="utf-8"?>
<!-- Generator: Adobe Illustrator 16.0.0, SVG Export Plug-In . SVG Version: 6.00 Build 0)  -->
<!DOCTYPE svg PUBLIC "-//W3C//DTD SVG 1.1//EN" "http://www.w3.org/Graphics/SVG/1.1/DTD/svg11.dtd">
<svg version="1.1" id="Layer_1" xmlns="http://www.w3.org/2000/svg" xmlns:xlink="http://www.w3.org/1999/xlink" x="0px" y="0px"
	 width="1028.009px" height="718.496px" viewBox="0 0 1028.009 718.496" enable-background="new 0 0 1028.009 718.496"
	 xml:space="preserve">
<rect x="0.683" fill="#261525" width="1026.545" height="718.003"/>
<path opacity="0.05" fill="none" stroke="#A69563" stroke-width="2" stroke-miterlimit="10" d="M1027.229,206.179
	c-260.823,63.939-484.132,252.458-625.384,511.822"/>
<path opacity="0.05" fill="none" stroke="#A69563" stroke-width="2" stroke-miterlimit="10" d="M1027.229,183.47
	C700.815,200.035,415.56,408.613,247.064,718.001"/>
<path opacity="0.05" fill="none" stroke="#A69563" stroke-width="2" stroke-miterlimit="10" d="M1027.229,207.116
	c-64.761-16.198-131.854-24.709-200.595-24.709c-343.874,0-646.509,212.997-822.2,535.596"/>
<path opacity="0.05" fill="none" stroke="#A69563" stroke-width="2" stroke-miterlimit="10" d="M1027.229,299.523
	C898.224,224.47,753.552,182.406,600.737,182.406c-225.92,0-434.04,91.937-600.056,246.488"/>
<path opacity="0.05" fill="none" stroke="#A69563" stroke-width="2" stroke-miterlimit="10" d="M1027.229,405.691
	C869.871,276.645,679.855,201.229,475.239,201.229c-172.095,0-333.862,53.348-474.557,147.083"/>
<path opacity="0.05" fill="none" stroke="#A69563" stroke-width="2" stroke-miterlimit="10" d="M1027.229,562.863
	c-178.741-222.989-429.334-361.634-706.77-361.634c-111.948,0-219.525,22.575-319.775,64.156"/>
<path opacity="0.05" fill="none" stroke="#A69563" stroke-width="2" stroke-miterlimit="10" d="M889.563,718.003
	C712.472,405.967,414.97,201.229,77.83,201.229c-25.963,0-51.691,1.214-77.147,3.598"/>
<path opacity="0.05" fill="none" stroke="#A69563" stroke-width="2" stroke-miterlimit="10" d="M663.667,718.002
	C513.136,452.768,275.606,265.058,0.684,214.717"/>
</svg>
